<svg width="1200" height="630" viewBox="0 0 1200 630" fill="none" xmlns="http://www.w3.org/2000/svg">
  <defs>
    <linearGradient id="bg" x1="0" y1="0" x2="1200" y2="630" gradientUnits="userSpaceOnUse">
      <stop offset="0" stop-color="#050816"/>
      <stop offset="0.55" stop-color="#0A1128"/>
      <stop offset="1" stop-color="#071B1E"/>
    </linearGradient>
    <linearGradient id="accent" x1="180" y1="90" x2="1020" y2="540" gradientUnits="userSpaceOnUse">
      <stop offset="0" stop-color="#00FF88"/>
      <stop offset="0.5" stop-color="#18CCFC"/>
      <stop offset="1" stop-color="#AE48FF"/>
    </linearGradient>
    <radialGradient id="glow" cx="0" cy="0" r="1" gradientUnits="userSpaceOnUse" gradientTransform="translate(860 210) rotate(130) scale(420 320)">
      <stop stop-color="#00FF88" stop-opacity="0.28"/>
      <stop offset="0.45" stop-color="#18CCFC" stop-opacity="0.12"/>
      <stop offset="1" stop-color="#18CCFC" stop-opacity="0"/>
    </radialGradient>
    <pattern id="grid" width="48" height="48" patternUnits="userSpaceOnUse">
      <path d="M 48 0 H 0 V 48" fill="none" stroke="rgba(255,255,255,0.06)" stroke-width="1"/>
    </pattern>
    <filter id="blur" x="-20%" y="-20%" width="140%" height="140%">
      <feGaussianBlur stdDeviation="25"/>
    </filter>
  </defs>

  <rect width="1200" height="630" fill="url(#bg)"/>
  <rect width="1200" height="630" fill="url(#grid)" opacity="0.55"/>
  <circle cx="920" cy="210" r="260" fill="url(#glow)" filter="url(#blur)"/>
  <circle cx="250" cy="540" r="160" fill="#00FF88" opacity="0.08" filter="url(#blur)"/>

  <path d="M120 120H1080" stroke="url(#accent)" stroke-width="2" opacity="0.75"/>
  <path d="M120 510H1080" stroke="url(#accent)" stroke-width="2" opacity="0.25"/>

  <rect x="120" y="140" width="620" height="350" rx="28" fill="rgba(8,12,24,0.72)" stroke="rgba(255,255,255,0.1)"/>
  <rect x="154" y="176" width="96" height="24" rx="12" fill="rgba(0,255,136,0.14)" stroke="rgba(0,255,136,0.4)"/>
  <text x="202" y="192" fill="#00FF88" font-family="Inter, Arial, sans-serif" font-size="14" font-weight="700" text-anchor="middle">PORTFOLIO</text>

  <text x="154" y="262" fill="#FFFFFF" font-family="Inter, Arial, sans-serif" font-size="54" font-weight="800">Claims Jose Christoper</text>
  <text x="154" y="318" fill="#A9B4D0" font-family="Inter, Arial, sans-serif" font-size="24" font-weight="500">Cybersecurity Engineering Student</text>
  <text x="154" y="366" fill="#D7DEE9" font-family="Inter, Arial, sans-serif" font-size="23" font-weight="400">Penetration Testing • SOC Analysis • Network Monitoring</text>

  <g transform="translate(154 404)">
    <rect x="0" y="0" width="160" height="42" rx="21" fill="#00FF88"/>
    <text x="80" y="27" fill="#061015" font-family="Inter, Arial, sans-serif" font-size="18" font-weight="800" text-anchor="middle">Open Portfolio</text>
  </g>

  <g transform="translate(800 135)">
    <rect x="0" y="0" width="280" height="360" rx="30" fill="rgba(6,10,20,0.72)" stroke="rgba(255,255,255,0.09)"/>
    <rect x="24" y="24" width="232" height="18" rx="9" fill="rgba(255,255,255,0.09)"/>
    <rect x="24" y="60" width="190" height="14" rx="7" fill="#00FF88" opacity="0.8"/>
    <rect x="24" y="90" width="220" height="10" rx="5" fill="rgba(255,255,255,0.14)"/>
    <rect x="24" y="114" width="170" height="10" rx="5" fill="rgba(255,255,255,0.14)"/>
    <rect x="24" y="160" width="232" height="1" fill="rgba(255,255,255,0.1)"/>
    <rect x="24" y="184" width="210" height="18" rx="9" fill="rgba(0,255,136,0.16)"/>
    <rect x="24" y="218" width="160" height="18" rx="9" fill="rgba(24,204,252,0.16)"/>
    <rect x="24" y="252" width="186" height="18" rx="9" fill="rgba(174,72,255,0.16)"/>
    <rect x="24" y="302" width="232" height="34" rx="17" fill="url(#accent)"/>
  </g>
</svg>